<svg width="31" height="31" viewBox="0 0 31 31" fill="none" xmlns="http://www.w3.org/2000/svg">
<path fill-rule="evenodd" clip-rule="evenodd" d="M18.1788 5.73324L27.5035 21.3622C27.7106 21.8298 27.8039 22.2111 27.8349 22.6083C27.899 23.5364 27.5879 24.4442 26.9611 25.1487C26.3343 25.8507 25.4783 26.2725 24.5418 26.3363L6.24698 26.6145C5.85923 26.5968 5.47051 26.5148 5.10604 26.3841C3.28294 25.6809 2.37693 23.6383 3.08712 21.8449L11.9929 5.81615C12.2968 5.25285 12.7644 4.76386 13.347 4.44531C15.0322 3.47698 17.2035 4.06335 18.1788 5.73324ZM16.3249 16.1547C16.3339 16.7491 15.8541 17.2532 15.2543 17.2623C14.6545 17.2714 14.147 16.7824 14.138 16.1879L14.0847 12.6843C14.0757 12.0886 14.5682 11.5992 15.168 11.5901C15.7679 11.581 16.2626 12.0553 16.2716 12.651L16.3249 16.1547ZM15.3187 21.4979C14.7189 21.507 14.2115 21.018 14.2024 20.4248C14.1934 19.8291 14.6857 19.3261 15.2855 19.3169C15.8854 19.3078 16.3801 19.7847 16.3891 20.3779C16.3983 20.9847 15.9185 21.4888 15.3187 21.4979Z" fill="white" fill-opacity="0.86"/>
</svg>
