<svg width="25" height="25" viewBox="0 0 25 25" fill="none" xmlns="http://www.w3.org/2000/svg">
<path fill-rule="evenodd" clip-rule="evenodd" d="M2.18232 12.3328C2.09839 6.81347 6.49976 2.26602 12.0291 2.18194C17.5485 2.09801 22.0961 6.50938 22.18 12.0287C22.2641 17.5581 17.8526 22.0957 12.3332 22.1796C6.80384 22.2637 2.2664 17.8622 2.18232 12.3328ZM14.4387 13.9767L15.9807 8.83263C16.0854 8.481 15.7604 8.1559 15.4121 8.27121L10.317 9.94887C10.1081 10.0221 9.94055 10.1846 9.88375 10.3955L8.36193 15.5492C8.25712 15.8909 8.5921 16.2158 8.93038 16.1007L14.0055 14.4233C14.2145 14.3601 14.3819 14.1876 14.4387 13.9767Z" fill="white"/>
</svg>
