<svg width="25" height="25" viewBox="0 0 25 25" fill="none" xmlns="http://www.w3.org/2000/svg">
<path d="M9.44972 20.9965L9.40323 17.9391C9.39136 17.1586 10.0191 16.5163 10.8052 16.5043L13.6791 16.4606C14.0566 16.4549 14.4209 16.5982 14.6919 16.8592C14.9629 17.1202 15.1184 17.4773 15.1241 17.8521L15.1705 20.9095C15.1731 21.234 15.306 21.544 15.5398 21.7708C15.7736 21.9976 16.0889 22.1223 16.4157 22.1173L18.3764 22.0875C19.2921 22.076 20.1657 21.7031 20.8043 21.0513C21.4428 20.3995 21.794 19.5222 21.7801 18.6132L21.6477 9.90324C21.6365 9.16893 21.298 8.47737 20.7235 8.01488L13.9733 2.82812C12.7989 1.91856 11.137 1.97377 10.0262 2.95925L3.58786 8.27545C3.00061 8.74171 2.65609 9.44572 2.64988 10.1921L2.78219 18.8932C2.811 20.7879 4.38156 22.3003 6.29013 22.2713L8.20603 22.2422C8.88489 22.2319 9.42833 21.6797 9.423 21.0058L9.44972 20.9965Z" fill="white"/>
</svg>
