<svg width="49" height="49" viewBox="0 0 49 49" fill="none" xmlns="http://www.w3.org/2000/svg">
<path fill-rule="evenodd" clip-rule="evenodd" d="M7.20831 20.9531C7.07043 11.8856 14.5363 4.44142 23.7018 4.30205C32.8932 4.16228 40.5819 11.376 40.7198 20.4436C40.7893 25.0128 39.192 29.2801 36.5116 32.9172C33.5545 36.9291 29.8879 40.4412 25.743 43.2173C24.7944 43.8587 23.9304 43.9191 22.8687 43.261C18.6174 40.6126 14.8457 37.2136 11.7939 33.2931C9.00207 29.7392 7.27779 25.5224 7.20831 20.9531ZM18.4409 21.293C18.4871 24.3306 21.0021 26.682 24.0414 26.6358C27.0827 26.5896 29.5489 24.1624 29.5027 21.1248C29.4569 18.1108 26.9162 15.6435 23.875 15.6897C20.8357 15.7359 18.3951 18.279 18.4409 21.293Z" fill="#FF005C"/>
</svg>
