<svg width="57" height="57" viewBox="0 0 57 57" fill="none" xmlns="http://www.w3.org/2000/svg">
<rect width="57" height="57" rx="11" fill="#FFAFCC"/>
<path d="M34 25C34 29.5 28 34 28 34C28 34 22 29.5 22 25C22 23.4087 22.6321 21.8826 23.7574 20.7574C24.8826 19.6321 26.4087 19 28 19C29.5913 19 31.1174 19.6321 32.2426 20.7574C33.3679 21.8826 34 23.4087 34 25Z" stroke="#671B37" stroke-width="2" stroke-linecap="round" stroke-linejoin="round"/>
<path d="M28 27C29.1046 27 30 26.1046 30 25C30 23.8954 29.1046 23 28 23C26.8954 23 26 23.8954 26 25C26 26.1046 26.8954 27 28 27Z" stroke="#671B37" stroke-width="2" stroke-linecap="round" stroke-linejoin="round"/>
<path d="M24.835 31H21C20.7965 31.0111 20.6013 31.0841 20.4405 31.2092C20.2796 31.3343 20.1608 31.5055 20.1 31.7L18.1 37.7C18 37.8 18 37.9 18 38C18 38.6 18.4 39 19 39H37C37.6 39 38 38.6 38 38C38 37.9 38 37.8 37.9 37.7L35.9 31.7C35.8392 31.5055 35.7204 31.3343 35.5595 31.2092C35.3987 31.0841 35.2035 31.0111 35 31H31.165" stroke="#671B37" stroke-width="2" stroke-linecap="round" stroke-linejoin="round"/>
</svg>
