<svg width="25" height="25" viewBox="0 0 25 25" fill="none" xmlns="http://www.w3.org/2000/svg">
<path fill-rule="evenodd" clip-rule="evenodd" d="M3.65674 10.6293C3.5868 6.02996 7.37371 2.25406 12.0227 2.18336C16.6849 2.11247 20.5848 5.77149 20.6548 10.3708C20.69 12.6885 19.8798 14.853 18.5202 16.6978C17.0203 18.7328 15.1605 20.5142 13.0581 21.9223C12.5769 22.2477 12.1387 22.2783 11.6001 21.9445C9.44376 20.6012 7.53068 18.8771 5.98267 16.8885C4.56659 15.0858 3.69198 12.947 3.65674 10.6293ZM9.35425 10.8017C9.37768 12.3425 10.6534 13.5352 12.195 13.5117C13.7376 13.4883 14.9886 12.2571 14.9651 10.7164C14.9419 9.18758 13.6532 7.93607 12.1106 7.95953C10.569 7.98297 9.331 9.2729 9.35425 10.8017Z" fill="#003672"/>
</svg>
