<svg width="25" height="25" viewBox="0 0 25 25" fill="none" xmlns="http://www.w3.org/2000/svg">
<path fill-rule="evenodd" clip-rule="evenodd" d="M19.2007 8.87683C19.2198 10.1326 19.563 10.8677 20.3064 11.7096C20.8694 12.3296 21.0586 13.1335 21.0719 14.0087C21.0852 14.8828 20.8106 15.717 20.2455 16.3994C19.5045 17.2185 18.45 17.7503 17.3672 17.8564C15.7981 18.0142 14.2278 18.1509 12.6348 18.1751C11.0408 18.1994 9.46867 18.1558 7.89483 18.0004C6.8083 17.9273 5.73814 17.4279 4.97359 16.6316C4.38797 15.9667 4.08716 15.1413 4.07387 14.2671C4.06057 13.392 4.22618 12.5827 4.76915 11.9459C5.50944 11.0814 5.80823 10.3366 5.78914 9.08077L5.78266 8.65479C5.75709 6.97302 6.15972 5.86695 7.00692 4.77729C8.26697 3.18778 10.3107 2.2149 12.3469 2.18394L12.4363 2.18258C14.5162 2.15095 16.6559 3.10555 17.9428 4.72381C18.7777 5.76574 19.1694 6.81339 19.1943 8.45085L19.2007 8.87683ZM9.73972 20.2865C9.73207 19.783 10.1907 19.5453 10.6165 19.4402C11.1147 19.3268 14.1605 19.2805 14.662 19.3786C15.0908 19.4708 15.5564 19.6944 15.5641 20.1979C15.5465 20.6777 15.2717 21.1069 14.8873 21.3827C14.3894 21.7831 13.8019 22.0409 13.1852 22.1399C12.844 22.1894 12.5082 22.1955 12.1775 22.1552C11.5571 22.075 10.962 21.8352 10.4532 21.4491C10.0595 21.1862 9.77186 20.7655 9.73972 20.2865Z" fill="white"/>
</svg>
