<svg width="31" height="31" viewBox="0 0 31 31" fill="none" xmlns="http://www.w3.org/2000/svg">
<path fill-rule="evenodd" clip-rule="evenodd" d="M27.4316 13.2148C27.2649 13.3817 27.0367 13.4792 26.7949 13.4829C25.9004 13.4965 25.1859 14.212 25.1989 15.0692C25.2121 15.9323 25.9395 16.6225 26.8257 16.6184C27.325 16.6155 27.7544 16.9472 27.7618 17.4322L27.8076 20.4442C27.8461 22.9794 25.762 25.0677 23.1511 25.1074L19.2106 25.1673C18.8032 25.1735 18.4684 24.858 18.4623 24.4622L18.4238 21.9258C18.4163 21.4327 18.0115 21.0512 17.5038 21.0589C17.0082 21.0665 16.6031 21.4602 16.6106 21.9534L16.6492 24.4898C16.6552 24.8855 16.3301 25.2111 15.924 25.2173L7.6065 25.3438C5.00767 25.3833 2.84901 23.3607 2.81044 20.8243L2.76464 17.8123C2.75727 17.3273 3.1764 16.9827 3.67554 16.9704C4.56263 16.9475 5.26755 16.2356 5.25443 15.3725C5.24175 14.5388 4.53103 13.9154 3.61237 13.9293C3.37062 13.933 3.13953 13.8426 2.9678 13.6807C2.79608 13.5189 2.69599 13.2973 2.69241 13.0624L2.64617 10.0211C2.60767 7.48937 4.70842 5.38555 7.3145 5.34592L15.6199 5.21963C16.026 5.21345 16.3609 5.52901 16.3669 5.92473L16.4126 8.93084C16.4199 9.41229 16.837 9.80529 17.3326 9.79775C17.8403 9.79003 18.2331 9.38472 18.2258 8.90327L18.18 5.89716C18.174 5.50143 18.4991 5.17584 18.9065 5.16965L22.847 5.10973C25.458 5.07003 27.6045 7.09282 27.6431 9.62923L27.6881 12.5884C27.6917 12.8232 27.5984 13.0478 27.4316 13.2148ZM17.4692 18.7809C17.9769 18.7731 18.3697 18.3678 18.3623 17.8864L18.2909 13.1893C18.2836 12.7079 17.8786 12.3147 17.371 12.3224C16.8754 12.33 16.4705 12.7355 16.4778 13.2169L16.5492 17.914C16.5565 18.3954 16.9736 18.7884 17.4692 18.7809Z" fill="white" fill-opacity="0.86"/>
</svg>
