<svg width="31" height="31" viewBox="0 0 31 31" fill="none" xmlns="http://www.w3.org/2000/svg">
<path fill-rule="evenodd" clip-rule="evenodd" d="M13.4461 4.65104C12.6083 4.66378 11.9044 5.25683 11.7163 6.04459L18.4438 5.94229C18.2318 5.16062 17.5102 4.58925 16.6724 4.60199L13.4461 4.65104ZM20.3446 5.91339L22.8205 5.87574C25.4465 5.83581 27.6178 7.96759 27.6582 10.6255C27.6582 10.6255 27.6003 11.7518 27.5991 13.3191C27.5985 13.4432 27.5403 13.5656 27.4426 13.6405C26.8479 14.0939 26.3033 14.4693 26.2536 14.4954C24.199 15.9192 21.8017 16.9355 19.2394 17.4618C19.0723 17.4973 18.9059 17.4125 18.8186 17.2644C18.0794 16.0274 16.7215 15.2353 15.2209 15.2581C13.7303 15.2808 12.3845 16.1052 11.662 17.3657C11.578 17.5138 11.4167 17.6011 11.2499 17.5719C8.69398 17.1221 6.26693 16.1805 4.18283 14.8436L2.96967 14.0266C2.86866 13.9648 2.80441 13.8518 2.80248 13.7253C2.75515 13.0803 2.66107 11.0056 2.66107 11.0056C2.62065 8.34769 4.72606 6.15088 7.35207 6.11095L9.81552 6.07349C10.0252 4.23466 11.5415 2.78106 13.4173 2.75254L16.6435 2.70348C18.5192 2.67496 20.0791 4.08178 20.3446 5.91339ZM27.3156 16.0618L27.2659 16.0879C24.7658 17.8223 21.7442 18.9949 18.5626 19.5117C18.1134 19.5819 17.6588 19.2976 17.5268 18.8439C17.2359 17.8102 16.3377 17.1402 15.2748 17.1564L15.2623 17.1566L15.2373 17.157C14.1744 17.1731 13.2969 17.8701 13.0376 18.9121C12.9195 19.3697 12.4737 19.6676 12.0226 19.6112C8.82676 19.1914 5.77096 18.1111 3.2192 16.4535C3.2065 16.4411 3.0803 16.367 2.98123 16.4318C2.86964 16.4968 2.87195 16.6487 2.87195 16.6487L3.05764 23.1023C3.09806 25.7602 5.25659 27.8795 7.8826 27.8396L22.9384 27.6107C25.5644 27.5707 27.6575 25.3868 27.6171 22.7288L27.619 16.2724C27.619 16.2724 27.6167 16.1205 27.5032 16.059C27.4401 16.0219 27.3652 16.0357 27.3156 16.0618ZM16.2544 21.5344C16.2625 22.066 15.8562 22.4899 15.331 22.4979C14.8183 22.5057 14.3868 22.0945 14.3787 21.5629L14.3539 19.9302C14.346 19.4113 14.7646 18.9745 15.2773 18.9667C15.8025 18.9587 16.2217 19.3828 16.2296 19.9017L16.2544 21.5344Z" fill="white" fill-opacity="0.86"/>
</svg>
